<svg width="99" height="50" viewBox="0 0 99 50" fill="none" xmlns="http://www.w3.org/2000/svg">
<g clip-path="url(#clip0_559_1525)">
<mask id="mask0_559_1525" style="mask-type:luminance" maskUnits="userSpaceOnUse" x="0" y="-27" width="99" height="102">
<path d="M0 -26.498H99V74.8449H0V-26.498Z" fill="white"/>
</mask>
<g mask="url(#mask0_559_1525)">
<path d="M0 -26.498H99V74.8449H0V-26.498Z" fill="black"/>
<path d="M0 -26.498H99V74.8449H0V-26.498Z" fill="white"/>
<path d="M0 -26.498H99V74.8449H0V-26.498Z" fill="black"/>
<path d="M0 -26.498H99V74.8449H0V-26.498Z" fill="white"/>
<path d="M13.173 10.2941L18.6519 26.1976H18.8682L24.3472 10.2941H26.6901L19.9135 29.1864H17.6066L10.83 10.2941H13.173Z" fill="#1E328B"/>
<path d="M33.7912 29.4816C32.4575 29.4816 31.307 29.1802 30.3398 28.5775C29.3786 27.9687 28.6366 27.12 28.114 26.0315C27.5973 24.9369 27.339 23.6638 27.339 22.2125C27.339 20.7611 27.5973 19.482 28.114 18.375C28.6366 17.2619 29.3635 16.3948 30.2947 15.7736C31.2319 15.1464 32.3253 14.8327 33.5749 14.8327C34.2958 14.8327 35.0077 14.9557 35.7106 15.2017C36.4135 15.4477 37.0533 15.8474 37.6301 16.4009C38.2068 16.9482 38.6664 17.6739 39.0088 18.5779C39.3512 19.482 39.5225 20.5951 39.5225 21.9173V22.8398H28.8529V20.9579H37.3597C37.3597 20.1585 37.2035 19.4451 36.8911 18.8178C36.5847 18.1905 36.1462 17.6954 35.5754 17.3326C35.0107 16.9698 34.3439 16.7883 33.5749 16.7883C32.7278 16.7883 31.9949 17.0036 31.3761 17.4341C30.7633 17.8584 30.2917 18.4119 29.9613 19.0945C29.6309 19.7772 29.4657 20.509 29.4657 21.29V22.5446C29.4657 23.6146 29.6459 24.5217 30.0064 25.2659C30.3728 26.0038 30.8805 26.5666 31.5293 26.954C32.1781 27.3353 32.9321 27.5259 33.7912 27.5259C34.3499 27.5259 34.8545 27.446 35.3051 27.2861C35.7617 27.12 36.1552 26.874 36.4856 26.5481C36.816 26.216 37.0713 25.804 37.2516 25.312L39.3062 25.9024C39.0899 26.6158 38.7264 27.243 38.2158 27.7842C37.7051 28.3193 37.0743 28.7374 36.3234 29.0388C35.5724 29.334 34.7284 29.4816 33.7912 29.4816Z" fill="#1E328B"/>
<path d="M44.8843 20.6627V29.1864H42.7576V15.0172H44.8122V17.2311H44.9924C45.3168 16.5116 45.8095 15.9335 46.4703 15.4969C47.1311 15.0541 47.9842 14.8327 49.0295 14.8327C49.9667 14.8327 50.7868 15.0295 51.4897 15.4231C52.1926 15.8105 52.7393 16.4009 53.1298 17.1942C53.5203 17.9814 53.7155 18.9777 53.7155 20.183V29.1864H51.5888V20.3306C51.5888 19.2175 51.3064 18.3504 50.7417 17.7293C50.177 17.102 49.402 16.7883 48.4168 16.7883C47.7379 16.7883 47.1311 16.939 46.5965 17.2404C46.0678 17.5417 45.6502 17.9814 45.3439 18.5595C45.0375 19.1376 44.8843 19.8387 44.8843 20.6627Z" fill="#1E328B"/>
<path d="M66.3248 23.3933V15.0172H68.4515V29.1864H66.3248V26.7879H66.1806C65.8562 27.5075 65.3515 28.1194 64.6667 28.6237C63.9818 29.1218 63.1167 29.3709 62.0714 29.3709C61.2063 29.3709 60.4373 29.1772 59.7644 28.7897C59.0916 28.3961 58.5629 27.8057 58.1784 27.0186C57.7939 26.2252 57.6017 25.2259 57.6017 24.0205V15.0172H59.7284V23.8729C59.7284 24.9061 60.0108 25.7302 60.5755 26.3452C61.1462 26.9601 61.8731 27.2676 62.7562 27.2676C63.2849 27.2676 63.8226 27.1293 64.3693 26.8525C64.922 26.5758 65.3846 26.1514 65.7571 25.5795C66.1355 25.0076 66.3248 24.2788 66.3248 23.3933Z" fill="#1E328B"/>
<path d="M76.4199 29.5185C75.5427 29.5185 74.7467 29.3493 74.0318 29.0111C73.3169 28.6667 72.7492 28.1717 72.3287 27.5259C71.9081 26.874 71.6979 26.0869 71.6979 25.1644C71.6979 24.3526 71.8541 23.6946 72.1665 23.1903C72.4789 22.6799 72.8964 22.2801 73.4191 21.9911C73.9417 21.7021 74.5184 21.4868 75.1493 21.3454C75.7861 21.1978 76.4259 21.0809 77.0687 20.9948C77.9098 20.8841 78.5916 20.8011 79.1143 20.7458C79.643 20.6843 80.0275 20.5828 80.2678 20.4413C80.5141 20.2999 80.6372 20.0539 80.6372 19.7034V19.6296C80.6372 18.7194 80.3939 18.0122 79.9073 17.5079C79.4267 17.0036 78.6968 16.7514 77.7175 16.7514C76.7022 16.7514 75.9062 16.979 75.3295 17.4341C74.7527 17.8892 74.3472 18.375 74.1129 18.8916L72.0944 18.1536C72.4548 17.2926 72.9354 16.6223 73.5362 16.1426C74.143 15.6568 74.8038 15.3185 75.5187 15.1279C76.2396 14.9311 76.9485 14.8327 77.6454 14.8327C78.09 14.8327 78.6006 14.8881 79.1774 14.9988C79.7601 15.1033 80.3218 15.3216 80.8625 15.6537C81.4092 15.9858 81.8628 16.487 82.2232 17.1573C82.5837 17.8277 82.7639 18.7255 82.7639 19.851V29.1864H80.6372V27.2676H80.5291C80.3849 27.5751 80.1446 27.9041 79.8082 28.2547C79.4717 28.6052 79.0242 28.9035 78.4655 29.1495C77.9068 29.3955 77.2249 29.5185 76.4199 29.5185ZM76.7443 27.5628C77.5854 27.5628 78.2943 27.3937 78.871 27.0555C79.4537 26.7172 79.8923 26.2806 80.1867 25.7456C80.487 25.2105 80.6372 24.6478 80.6372 24.0574V22.0649C80.5471 22.1756 80.3489 22.2771 80.0425 22.3693C79.7421 22.4554 79.3936 22.5323 78.9971 22.5999C78.6066 22.6614 78.2252 22.7168 77.8527 22.766C77.4862 22.809 77.1888 22.8459 76.9606 22.8767C76.4079 22.9505 75.8912 23.0704 75.4106 23.2364C74.936 23.3963 74.5515 23.6392 74.2571 23.9652C73.9688 24.285 73.8246 24.7216 73.8246 25.2751C73.8246 26.0315 74.0979 26.6035 74.6446 26.9909C75.1973 27.3722 75.8972 27.5628 76.7443 27.5628Z" fill="#1E328B"/>
<path d="M92.6653 15.0172V16.8621H85.4921V15.0172H92.6653ZM87.5828 11.6225H89.7095V25.1275C89.7095 25.7425 89.7966 26.2037 89.9708 26.5112C90.1511 26.8125 90.3794 27.0155 90.6557 27.12C90.9381 27.2184 91.2355 27.2676 91.5479 27.2676C91.7822 27.2676 91.9744 27.2553 92.1246 27.2307C92.2748 27.2 92.3949 27.1754 92.485 27.1569L92.9176 29.1126C92.7734 29.1679 92.5722 29.2233 92.3138 29.2786C92.0555 29.3401 91.7281 29.3709 91.3316 29.3709C90.7308 29.3709 90.1421 29.2387 89.5653 28.9742C88.9946 28.7098 88.52 28.307 88.1415 27.7658C87.769 27.2246 87.5828 26.542 87.5828 25.7179V11.6225Z" fill="#1E328B"/>
<path d="M24.4522 38.7274C24.4116 38.6005 24.3582 38.4868 24.292 38.3862C24.2269 38.2845 24.1489 38.1977 24.0581 38.1261C23.9685 38.0545 23.8666 37.9998 23.7524 37.9621C23.6383 37.9244 23.513 37.9056 23.3768 37.9056C23.1533 37.9056 22.9502 37.9646 22.7673 38.0828C22.5844 38.2009 22.4389 38.3749 22.3309 38.6049C22.2228 38.8349 22.1688 39.117 22.1688 39.4513C22.1688 39.7855 22.2234 40.0676 22.3327 40.2976C22.442 40.5276 22.5899 40.7016 22.7765 40.8198C22.9631 40.9379 23.173 40.9969 23.4062 40.9969C23.6223 40.9969 23.8126 40.9498 23.9771 40.8556C24.1428 40.7601 24.2717 40.6256 24.3638 40.4522C24.4571 40.2775 24.5037 40.0721 24.5037 39.8358L24.6437 39.866H23.5094V39.4513H24.9457V39.866C24.9457 40.1839 24.8794 40.4604 24.7468 40.6954C24.6154 40.9304 24.4337 41.1126 24.2017 41.242C23.9709 41.3702 23.7058 41.4343 23.4062 41.4343C23.0723 41.4343 22.7789 41.3538 22.526 41.193C22.2744 41.0321 22.078 40.8034 21.9368 40.5069C21.7968 40.2103 21.7269 39.8584 21.7269 39.4513C21.7269 39.1459 21.7668 38.8713 21.8466 38.6275C21.9276 38.3825 22.0418 38.1739 22.1891 38.0017C22.3364 37.8296 22.5107 37.6976 22.712 37.6059C22.9134 37.5141 23.1349 37.4683 23.3768 37.4683C23.5756 37.4683 23.761 37.4991 23.9329 37.5606C24.106 37.6209 24.26 37.707 24.3951 37.8189C24.5313 37.9295 24.6449 38.062 24.7357 38.2166C24.8266 38.3699 24.8892 38.5402 24.9236 38.7274H24.4522Z" fill="#1E328B"/>
<path d="M26.5012 41.4493C26.3219 41.4493 26.1593 41.4148 26.0132 41.3457C25.8671 41.2753 25.7511 41.1741 25.6652 41.0422C25.5792 40.909 25.5363 40.7481 25.5363 40.5596C25.5363 40.3938 25.5682 40.2593 25.632 40.1562C25.6959 40.0519 25.7812 39.9703 25.888 39.9112C25.9948 39.8521 26.1126 39.8082 26.2415 39.7792C26.3717 39.7491 26.5024 39.7252 26.6338 39.7076C26.8056 39.685 26.945 39.668 27.0518 39.6567C27.1598 39.6442 27.2384 39.6234 27.2875 39.5945C27.3378 39.5656 27.363 39.5154 27.363 39.4437V39.4286C27.363 39.2427 27.3132 39.0981 27.2138 38.9951C27.1156 38.8921 26.9664 38.8405 26.7663 38.8405C26.5589 38.8405 26.3962 38.887 26.2784 38.98C26.1605 39.073 26.0777 39.1723 26.0298 39.2778L25.6173 39.127C25.691 38.9511 25.7892 38.8141 25.9119 38.7161C26.0359 38.6168 26.171 38.5477 26.317 38.5088C26.4643 38.4686 26.6092 38.4484 26.7516 38.4484C26.8424 38.4484 26.9468 38.4598 27.0646 38.4824C27.1837 38.5037 27.2985 38.5484 27.409 38.6162C27.5207 38.6841 27.6134 38.7865 27.687 38.9235C27.7607 39.0604 27.7975 39.2439 27.7975 39.4739V41.3815H27.363V40.9894H27.3409C27.3114 41.0522 27.2623 41.1195 27.1935 41.1911C27.1248 41.2627 27.0333 41.3237 26.9192 41.3739C26.805 41.4242 26.6657 41.4493 26.5012 41.4493ZM26.5675 41.0497C26.7393 41.0497 26.8842 41.0152 27.002 40.9461C27.1211 40.8769 27.2107 40.7877 27.2709 40.6784C27.3323 40.5691 27.363 40.4541 27.363 40.3334V39.9263C27.3445 39.9489 27.304 39.9696 27.2414 39.9885C27.18 40.0061 27.1088 40.0218 27.0278 40.0356C26.948 40.0482 26.8701 40.0595 26.794 40.0695C26.7191 40.0783 26.6583 40.0859 26.6117 40.0922C26.4987 40.1072 26.3931 40.1317 26.2949 40.1657C26.198 40.1983 26.1194 40.248 26.0592 40.3146C26.0003 40.3799 25.9708 40.4692 25.9708 40.5823C25.9708 40.7368 26.0267 40.8537 26.1384 40.9329C26.2514 41.0108 26.3944 41.0497 26.5675 41.0497Z" fill="#1E328B"/>
<path d="M29.8208 38.4862V38.8631H28.355V38.4862H29.8208ZM28.7822 37.7925H29.2168V40.5521C29.2168 40.6778 29.2346 40.772 29.2702 40.8348C29.307 40.8964 29.3537 40.9379 29.4101 40.9593C29.4678 40.9794 29.5286 40.9894 29.5924 40.9894C29.6403 40.9894 29.6796 40.9869 29.7103 40.9819C29.741 40.9756 29.7655 40.9706 29.7839 40.9668L29.8723 41.3664C29.8429 41.3777 29.8017 41.389 29.7489 41.4003C29.6962 41.4129 29.6293 41.4192 29.5482 41.4192C29.4255 41.4192 29.3052 41.3922 29.1873 41.3381C29.0707 41.2841 28.9737 41.2018 28.8964 41.0912C28.8203 40.9806 28.7822 40.8411 28.7822 40.6727V37.7925Z" fill="#1E328B"/>
<path d="M30.9698 39.6398V41.3815H30.5352V37.521H30.9698V38.9385H31.0066C31.0729 38.789 31.1724 38.6702 31.3049 38.5823C31.4387 38.4931 31.6167 38.4484 31.8389 38.4484C32.0317 38.4484 32.2005 38.488 32.3453 38.5672C32.4902 38.6451 32.6025 38.7651 32.6823 38.9272C32.7633 39.0881 32.8038 39.2929 32.8038 39.5417V41.3815H32.3693V39.5719C32.3693 39.3419 32.311 39.1641 32.1943 39.0384C32.0789 38.9115 31.9187 38.8481 31.7137 38.8481C31.5713 38.8481 31.4437 38.8789 31.3307 38.9404C31.219 39.002 31.1306 39.0919 31.0656 39.21C31.0017 39.3281 30.9698 39.4714 30.9698 39.6398Z" fill="#1E328B"/>
<path d="M34.7847 41.4418C34.5122 41.4418 34.2771 41.3802 34.0795 41.2571C33.8831 41.1327 33.7314 40.9593 33.6246 40.7368C33.5191 40.5131 33.4663 40.253 33.4663 39.9564C33.4663 39.6599 33.5191 39.3985 33.6246 39.1723C33.7314 38.9448 33.88 38.7676 34.0703 38.6407C34.2618 38.5125 34.4852 38.4484 34.7405 38.4484C34.8878 38.4484 35.0333 38.4736 35.1769 38.5238C35.3206 38.5741 35.4513 38.6558 35.5692 38.7689C35.687 38.8807 35.7809 39.029 35.8509 39.2138C35.9209 39.3985 35.9559 39.6259 35.9559 39.8961V40.0846H33.7756V39.7001H35.5139C35.5139 39.5367 35.482 39.3909 35.4182 39.2628C35.3556 39.1346 35.266 39.0334 35.1493 38.9593C35.0339 38.8851 34.8977 38.8481 34.7405 38.8481C34.5674 38.8481 34.4177 38.8921 34.2912 38.98C34.166 39.0667 34.0697 39.1798 34.0021 39.3193C33.9346 39.4588 33.9009 39.6083 33.9009 39.7679V40.0243C33.9009 40.243 33.9377 40.4283 34.0113 40.5804C34.0862 40.7312 34.19 40.8461 34.3225 40.9253C34.4551 41.0032 34.6092 41.0422 34.7847 41.0422C34.8989 41.0422 35.002 41.0258 35.0941 40.9932C35.1874 40.9593 35.2678 40.909 35.3353 40.8424C35.4028 40.7745 35.455 40.6903 35.4918 40.5898L35.9117 40.7104C35.8675 40.8562 35.7932 40.9844 35.6889 41.095C35.5845 41.2043 35.4556 41.2897 35.3022 41.3513C35.1487 41.4116 34.9762 41.4418 34.7847 41.4418Z" fill="#1E328B"/>
<path d="M36.6169 41.3815V38.4862H37.0368V38.9235H37.0662C37.1178 38.7802 37.2111 38.664 37.3461 38.5747C37.4812 38.4855 37.6334 38.4409 37.8028 38.4409C37.8347 38.4409 37.8746 38.4415 37.9225 38.4428C37.9704 38.4441 38.0066 38.4459 38.0311 38.4484V38.9008C38.0164 38.8971 37.9826 38.8914 37.9298 38.8839C37.8783 38.8751 37.8237 38.8707 37.766 38.8707C37.6285 38.8707 37.5057 38.9002 37.3977 38.9593C37.2909 39.0171 37.2062 39.0975 37.1436 39.2006C37.0822 39.3023 37.0515 39.4186 37.0515 39.5493V41.3815H36.6169Z" fill="#1E328B"/>
<path d="M40.6381 36.277V42.6256H40.2698V36.277H40.6381Z" fill="#1E328B"/>
<path d="M43.2184 41.3815V37.521H45.4943V37.9357H43.675V39.2401H45.3765V39.6548H43.675V40.9668H45.5238V41.3815H43.2184Z" fill="#1E328B"/>
<path d="M46.6931 39.6398V41.3815H46.2585V38.4862H46.6784V38.9385H46.7152C46.7815 38.7915 46.8821 38.6734 47.0172 38.5842C47.1522 38.4937 47.3265 38.4484 47.5401 38.4484C47.7316 38.4484 47.8992 38.4887 48.0428 38.5691C48.1865 38.6483 48.2982 38.7689 48.378 38.931C48.4578 39.0919 48.4977 39.2954 48.4977 39.5417V41.3815H48.0631V39.5719C48.0631 39.3445 48.0054 39.1673 47.89 39.0403C47.7746 38.9122 47.6162 38.8481 47.4149 38.8481C47.2762 38.8481 47.1522 38.8789 47.043 38.9404C46.9349 39.002 46.8496 39.0919 46.787 39.21C46.7244 39.3281 46.6931 39.4714 46.6931 39.6398Z" fill="#1E328B"/>
<path d="M50.4334 42.5276C50.2235 42.5276 50.0431 42.4999 49.8921 42.4446C49.7411 42.3906 49.6152 42.3189 49.5146 42.2297C49.4151 42.1418 49.336 42.0475 49.277 41.947L49.6232 41.6982C49.6625 41.7509 49.7122 41.8113 49.7724 41.8791C49.8325 41.9482 49.9148 42.0079 50.0191 42.0582C50.1247 42.1097 50.2628 42.1355 50.4334 42.1355C50.6618 42.1355 50.8502 42.0789 50.9988 41.9658C51.1473 41.8527 51.2216 41.6755 51.2216 41.4343V40.8462H51.1847C51.1528 40.8989 51.1074 40.9643 51.0485 41.0422C50.9908 41.1188 50.9073 41.1873 50.798 41.2477C50.69 41.3067 50.5439 41.3362 50.3598 41.3362C50.1314 41.3362 49.9264 41.281 49.7448 41.1704C49.5643 41.0598 49.4213 40.8989 49.3157 40.6878C49.2114 40.4767 49.1592 40.2203 49.1592 39.9187C49.1592 39.6222 49.2101 39.3639 49.312 39.144C49.4139 38.9228 49.5557 38.7519 49.7374 38.6313C49.9191 38.5094 50.129 38.4484 50.3671 38.4484C50.5513 38.4484 50.6974 38.4799 50.8054 38.5427C50.9147 38.6043 50.9981 38.6746 51.0558 38.7538C51.1148 38.8317 51.1602 38.8958 51.1921 38.9461H51.2363V38.4862H51.6561V41.4644C51.6561 41.7132 51.6009 41.9156 51.4904 42.0714C51.3811 42.2285 51.2338 42.3435 51.0485 42.4163C50.8643 42.4905 50.6593 42.5276 50.4334 42.5276ZM50.4187 40.9366C50.593 40.9366 50.7403 40.8958 50.8606 40.8141C50.9809 40.7324 51.0724 40.6149 51.135 40.4616C51.1976 40.3083 51.2289 40.1248 51.2289 39.9112C51.2289 39.7026 51.1982 39.5185 51.1369 39.3589C51.0755 39.1993 50.9846 39.0743 50.8643 38.9838C50.744 38.8933 50.5955 38.8481 50.4187 38.8481C50.2346 38.8481 50.0811 38.8958 49.9584 38.9913C49.8368 39.0868 49.7454 39.215 49.684 39.3759C49.6238 39.5367 49.5938 39.7152 49.5938 39.9112C49.5938 40.1123 49.6245 40.2901 49.6858 40.4446C49.7484 40.598 49.8405 40.7186 49.962 40.8066C50.0848 40.8933 50.237 40.9366 50.4187 40.9366Z" fill="#1E328B"/>
<path d="M53.2839 41.4493C53.1047 41.4493 52.942 41.4148 52.796 41.3457C52.6499 41.2753 52.5339 41.1741 52.4479 41.0422C52.362 40.909 52.319 40.7481 52.319 40.5596C52.319 40.3938 52.351 40.2593 52.4148 40.1562C52.4786 40.0519 52.5639 39.9703 52.6707 39.9112C52.7775 39.8521 52.8954 39.8082 53.0243 39.7792C53.1544 39.7491 53.2852 39.7252 53.4165 39.7076C53.5884 39.685 53.7277 39.668 53.8345 39.6567C53.9425 39.6442 54.0211 39.6234 54.0702 39.5945C54.1205 39.5656 54.1457 39.5154 54.1457 39.4437V39.4286C54.1457 39.2427 54.096 39.0981 53.9966 38.9951C53.8983 38.8921 53.7492 38.8405 53.5491 38.8405C53.3416 38.8405 53.179 38.887 53.0611 38.98C52.9433 39.073 52.8604 39.1723 52.8125 39.2778L52.4001 39.127C52.4737 38.9511 52.5719 38.8141 52.6947 38.7161C52.8187 38.6168 52.9537 38.5477 53.0998 38.5088C53.2471 38.4686 53.392 38.4484 53.5344 38.4484C53.6252 38.4484 53.7296 38.4598 53.8474 38.4824C53.9665 38.5037 54.0813 38.5484 54.1917 38.6162C54.3035 38.6841 54.3961 38.7865 54.4698 38.9235C54.5434 39.0604 54.5803 39.2439 54.5803 39.4739V41.3815H54.1457V40.9894H54.1236C54.0941 41.0522 54.045 41.1195 53.9763 41.1911C53.9076 41.2627 53.8161 41.3237 53.7019 41.3739C53.5878 41.4242 53.4484 41.4493 53.2839 41.4493ZM53.3502 41.0497C53.5221 41.0497 53.6669 41.0152 53.7848 40.9461C53.9039 40.8769 53.9935 40.7877 54.0536 40.6784C54.115 40.5691 54.1457 40.4541 54.1457 40.3334V39.9263C54.1273 39.9489 54.0868 39.9696 54.0242 39.9885C53.9628 40.0061 53.8916 40.0218 53.8106 40.0356C53.7308 40.0482 53.6528 40.0595 53.5767 40.0695C53.5018 40.0783 53.4411 40.0859 53.3944 40.0922C53.2815 40.1072 53.1759 40.1317 53.0777 40.1657C52.9807 40.1983 52.9021 40.248 52.842 40.3146C52.7831 40.3799 52.7536 40.4692 52.7536 40.5823C52.7536 40.7368 52.8095 40.8537 52.9212 40.9329C53.0341 41.0108 53.1771 41.0497 53.3502 41.0497Z" fill="#1E328B"/>
<path d="M56.5151 42.5276C56.3052 42.5276 56.1248 42.4999 55.9738 42.4446C55.8228 42.3906 55.6969 42.3189 55.5963 42.2297C55.4968 42.1418 55.4177 42.0475 55.3587 41.947L55.7049 41.6982C55.7442 41.7509 55.7939 41.8113 55.8541 41.8791C55.9142 41.9482 55.9965 42.0079 56.1008 42.0582C56.2064 42.1097 56.3445 42.1355 56.5151 42.1355C56.7435 42.1355 56.9319 42.0789 57.0804 41.9658C57.229 41.8527 57.3033 41.6755 57.3033 41.4343V40.8462H57.2664C57.2345 40.8989 57.1891 40.9643 57.1302 41.0422C57.0725 41.1188 56.989 41.1873 56.8797 41.2477C56.7717 41.3067 56.6256 41.3362 56.4415 41.3362C56.2131 41.3362 56.0081 41.281 55.8265 41.1704C55.646 41.0598 55.503 40.8989 55.3974 40.6878C55.2931 40.4767 55.2409 40.2203 55.2409 39.9187C55.2409 39.6222 55.2918 39.3639 55.3937 39.144C55.4956 38.9228 55.6374 38.7519 55.8191 38.6313C56.0008 38.5094 56.2107 38.4484 56.4488 38.4484C56.633 38.4484 56.7791 38.4799 56.8871 38.5427C56.9964 38.6043 57.0798 38.6746 57.1375 38.7538C57.1965 38.8317 57.2419 38.8958 57.2738 38.9461H57.318V38.4862H57.7378V41.4644C57.7378 41.7132 57.6826 41.9156 57.5721 42.0714C57.4628 42.2285 57.3155 42.3435 57.1302 42.4163C56.946 42.4905 56.741 42.5276 56.5151 42.5276ZM56.5004 40.9366C56.6747 40.9366 56.822 40.8958 56.9423 40.8141C57.0626 40.7324 57.1541 40.6149 57.2167 40.4616C57.2793 40.3083 57.3106 40.1248 57.3106 39.9112C57.3106 39.7026 57.2799 39.5185 57.2185 39.3589C57.1572 39.1993 57.0663 39.0743 56.946 38.9838C56.8257 38.8933 56.6772 38.8481 56.5004 38.8481C56.3163 38.8481 56.1628 38.8958 56.0401 38.9913C55.9185 39.0868 55.8271 39.215 55.7657 39.3759C55.7055 39.5367 55.6755 39.7152 55.6755 39.9112C55.6755 40.1123 55.7061 40.2901 55.7675 40.4446C55.8301 40.598 55.9222 40.7186 56.0437 40.8066C56.1665 40.8933 56.3187 40.9366 56.5004 40.9366Z" fill="#1E328B"/>
<path d="M59.7192 41.4418C59.4466 41.4418 59.2116 41.3802 59.0139 41.2571C58.8175 41.1327 58.6659 40.9593 58.5591 40.7368C58.4535 40.5131 58.4007 40.253 58.4007 39.9564C58.4007 39.6599 58.4535 39.3985 58.5591 39.1723C58.6659 38.9448 58.8144 38.7676 59.0047 38.6407C59.1962 38.5125 59.4196 38.4484 59.675 38.4484C59.8223 38.4484 59.9678 38.4736 60.1114 38.5238C60.255 38.5741 60.3858 38.6558 60.5036 38.7689C60.6215 38.8807 60.7154 39.029 60.7854 39.2138C60.8553 39.3985 60.8903 39.6259 60.8903 39.8961V40.0846H58.7101V39.7001H60.4484C60.4484 39.5367 60.4165 39.3909 60.3526 39.2628C60.29 39.1346 60.2004 39.0334 60.0838 38.9593C59.9684 38.8851 59.8321 38.8481 59.675 38.8481C59.5019 38.8481 59.3521 38.8921 59.2257 38.98C59.1005 39.0667 59.0041 39.1798 58.9366 39.3193C58.8691 39.4588 58.8353 39.6083 58.8353 39.7679V40.0243C58.8353 40.243 58.8721 40.4283 58.9458 40.5804C59.0207 40.7312 59.1244 40.8461 59.257 40.9253C59.3896 41.0032 59.5436 41.0422 59.7192 41.0422C59.8333 41.0422 59.9365 41.0258 60.0285 40.9932C60.1218 40.9593 60.2022 40.909 60.2698 40.8424C60.3373 40.7745 60.3895 40.6903 60.4263 40.5898L60.8461 40.7104C60.8019 40.8562 60.7277 40.9844 60.6233 41.095C60.519 41.2043 60.3901 41.2897 60.2366 41.3513C60.0832 41.4116 59.9107 41.4418 59.7192 41.4418Z" fill="#1E328B"/>
<path d="M63.6432 36.277V42.6256H63.2749V36.277H63.6432Z" fill="#1E328B"/>
<path d="M66.6801 37.521V41.3815H66.2235V37.521H66.6801Z" fill="#1E328B"/>
<path d="M67.9714 39.6398V41.3815H67.5369V38.4862H67.9567V38.9385H67.9935C68.0598 38.7915 68.1605 38.6734 68.2955 38.5842C68.4305 38.4937 68.6049 38.4484 68.8185 38.4484C69.01 38.4484 69.1776 38.4887 69.3212 38.5691C69.4648 38.6483 69.5765 38.7689 69.6563 38.931C69.7361 39.0919 69.776 39.2954 69.776 39.5417V41.3815H69.3414V39.5719C69.3414 39.3445 69.2837 39.1673 69.1683 39.0403C69.0529 38.9122 68.8946 38.8481 68.6933 38.8481C68.5545 38.8481 68.4306 38.8789 68.3213 38.9404C68.2133 39.002 68.128 39.0919 68.0653 39.21C68.0027 39.3281 67.9714 39.4714 67.9714 39.6398Z" fill="#1E328B"/>
<path d="M72.5736 39.1346L72.1832 39.2477C72.1586 39.1811 72.1224 39.1164 72.0745 39.0535C72.0279 38.9894 71.9641 38.9367 71.883 38.8952C71.802 38.8537 71.6983 38.833 71.5718 38.833C71.3987 38.833 71.2545 38.8738 71.1391 38.9555C71.0249 39.0359 70.9678 39.1384 70.9678 39.2628C70.9678 39.3734 71.0071 39.4607 71.0857 39.5248C71.1643 39.5889 71.287 39.6423 71.454 39.685L71.8738 39.7906C72.1267 39.8534 72.3151 39.9495 72.4391 40.079C72.5631 40.2071 72.6251 40.3724 72.6251 40.5747C72.6251 40.7406 72.5785 40.8889 72.4852 41.0196C72.3931 41.1503 72.2642 41.2533 72.0985 41.3287C71.9327 41.4041 71.74 41.4418 71.5203 41.4418C71.2318 41.4418 70.993 41.3777 70.804 41.2495C70.6149 41.1214 70.4952 40.9341 70.4449 40.6878L70.8574 40.5823C70.8967 40.7381 70.9709 40.8549 71.0802 40.9329C71.1907 41.0108 71.3349 41.0497 71.5129 41.0497C71.7155 41.0497 71.8763 41.0057 71.9954 40.9178C72.1157 40.8286 72.1758 40.7217 72.1758 40.5973C72.1758 40.4968 72.1414 40.4126 72.0727 40.3447C72.004 40.2756 71.8984 40.2241 71.756 40.1902L71.2846 40.0771C71.0256 40.0142 70.8353 39.9169 70.7137 39.7849C70.5934 39.6517 70.5333 39.4852 70.5333 39.2854C70.5333 39.122 70.5781 38.9775 70.6677 38.8518C70.7585 38.7262 70.8819 38.6275 71.0378 38.5559C71.195 38.4843 71.373 38.4484 71.5718 38.4484C71.8517 38.4484 72.0715 38.5113 72.2311 38.6369C72.3919 38.7626 72.506 38.9285 72.5736 39.1346Z" fill="#1E328B"/>
<path d="M73.2793 42.4672V38.4862H73.6991V38.9461H73.7507C73.7826 38.8958 73.8268 38.8317 73.8833 38.7538C73.9409 38.6746 74.0232 38.6043 74.13 38.5427C74.238 38.4799 74.3841 38.4484 74.5683 38.4484C74.8064 38.4484 75.0163 38.5094 75.198 38.6313C75.3797 38.7532 75.5215 38.926 75.6234 39.1497C75.7253 39.3733 75.7762 39.6372 75.7762 39.9414C75.7762 40.248 75.7253 40.5138 75.6234 40.7387C75.5215 40.9624 75.3803 41.1358 75.1999 41.259C75.0194 41.3809 74.8113 41.4418 74.5756 41.4418C74.3939 41.4418 74.2485 41.411 74.1392 41.3494C74.03 41.2866 73.9459 41.2156 73.8869 41.1364C73.828 41.056 73.7826 40.9894 73.7507 40.9366H73.7138V42.4672H73.2793ZM73.7065 39.9338C73.7065 40.1525 73.7378 40.3454 73.8004 40.5125C73.863 40.6784 73.9545 40.8084 74.0748 40.9027C74.1951 40.9957 74.3424 41.0422 74.5167 41.0422C74.6984 41.0422 74.85 40.9932 74.9715 40.8952C75.0943 40.7959 75.1864 40.6627 75.2477 40.4955C75.3103 40.3271 75.3416 40.1399 75.3416 39.9338C75.3416 39.7302 75.311 39.5468 75.2496 39.3834C75.1894 39.2188 75.098 39.0887 74.9752 38.9932C74.8537 38.8965 74.7008 38.8481 74.5167 38.8481C74.3399 38.8481 74.1914 38.8939 74.0711 38.9857C73.9508 39.0761 73.8599 39.2031 73.7985 39.3664C73.7372 39.5285 73.7065 39.7177 73.7065 39.9338Z" fill="#1E328B"/>
<path d="M76.4391 41.3815V38.4862H76.8737V41.3815H76.4391ZM76.6601 38.0036C76.5754 38.0036 76.5023 37.9741 76.441 37.915C76.3808 37.8559 76.3507 37.7849 76.3507 37.702C76.3507 37.6191 76.3808 37.5481 76.441 37.489C76.5023 37.4299 76.5754 37.4004 76.6601 37.4004C76.7448 37.4004 76.8172 37.4299 76.8774 37.489C76.9388 37.5481 76.9695 37.6191 76.9695 37.702C76.9695 37.7849 76.9388 37.8559 76.8774 37.915C76.8172 37.9741 76.7448 38.0036 76.6601 38.0036Z" fill="#1E328B"/>
<path d="M77.6696 41.3815V38.4862H78.0895V38.9235H78.1189C78.1705 38.7802 78.2638 38.664 78.3988 38.5747C78.5339 38.4855 78.6861 38.4409 78.8555 38.4409C78.8874 38.4409 78.9273 38.4415 78.9752 38.4428C79.0231 38.4441 79.0593 38.4459 79.0838 38.4484V38.9008C79.0691 38.8971 79.0354 38.8914 78.9826 38.8839C78.931 38.8751 78.8764 38.8707 78.8187 38.8707C78.6812 38.8707 78.5584 38.9002 78.4504 38.9593C78.3436 39.0171 78.2589 39.0975 78.1963 39.2006C78.1349 39.3023 78.1042 39.4186 78.1042 39.5493V41.3815H77.6696Z" fill="#1E328B"/>
<path d="M80.6988 41.4418C80.4262 41.4418 80.1911 41.3802 79.9935 41.2571C79.7971 41.1327 79.6455 40.9593 79.5387 40.7368C79.4331 40.5131 79.3803 40.253 79.3803 39.9564C79.3803 39.6599 79.4331 39.3985 79.5387 39.1723C79.6455 38.9448 79.794 38.7676 79.9843 38.6407C80.1758 38.5125 80.3992 38.4484 80.6546 38.4484C80.8019 38.4484 80.9473 38.4736 81.091 38.5238C81.2346 38.5741 81.3653 38.6558 81.4832 38.7689C81.601 38.8807 81.695 39.029 81.7649 39.2138C81.8349 39.3985 81.8699 39.6259 81.8699 39.8961V40.0846H79.6897V39.7001H81.428C81.428 39.5367 81.396 39.3909 81.3322 39.2628C81.2696 39.1346 81.18 39.0334 81.0633 38.9593C80.948 38.8851 80.8117 38.8481 80.6546 38.8481C80.4815 38.8481 80.3317 38.8921 80.2053 38.98C80.08 39.0667 79.9837 39.1798 79.9162 39.3193C79.8486 39.4588 79.8149 39.6083 79.8149 39.7679V40.0243C79.8149 40.243 79.8517 40.4283 79.9254 40.5804C80.0002 40.7312 80.104 40.8461 80.2366 40.9253C80.3691 41.0032 80.5232 41.0422 80.6988 41.0422C80.8129 41.0422 80.916 41.0258 81.0081 40.9932C81.1014 40.9593 81.1818 40.909 81.2493 40.8424C81.3168 40.7745 81.369 40.6903 81.4059 40.5898L81.8257 40.7104C81.7815 40.8562 81.7072 40.9844 81.6029 41.095C81.4985 41.2043 81.3696 41.2897 81.2162 41.3513C81.0627 41.4116 80.8903 41.4418 80.6988 41.4418Z" fill="#1E328B"/>
</g>
</g>
<defs>
<clipPath id="clip0_559_1525">
<rect width="99" height="50" rx="16" fill="white"/>
</clipPath>
</defs>
</svg>
