<svg width="20"  height="20" viewBox="0 0 64 64" fill="none" xmlns="http://www.w3.org/2000/svg">
	<path d="M24 56H4.996C2.242 56 0 53.758 0 51.004V12.96C0 10.226 2.226 8 4.96 8H23.818C24.922 8 25.818 8.896 25.818 10C25.818 11.104 24.922 12 23.818 12H4.96C4.43 12 4 12.43 4 12.96V51.002C4 51.542 4.456 52 4.996 52H24C25.104 52 26 52.894 26 54C26 55.106 25.104 56 24 56Z" fill="currentColor"/>
	<path d="M56.1802 54C56.1802 52.9 57.0802 52 58.1802 52C59.2802 52 60.1802 52.9 60.1802 54C60.1802 55.1 59.2802 56 58.1802 56C57.0802 56 56.1802 55.1 56.1802 54ZM50.1802 54C50.1802 52.9 51.0802 52 52.1802 52C53.2802 52 54.1802 52.9 54.1802 54C54.1802 55.1 53.2802 56 52.1802 56C51.0802 56 50.1802 55.1 50.1802 54ZM44.1802 54C44.1802 52.9 45.0802 52 46.1802 52C47.2802 52 48.1802 52.9 48.1802 54C48.1802 55.1 47.2802 56 46.1802 56C45.0802 56 44.1802 55.1 44.1802 54ZM38.1802 54C38.1802 52.9 39.0802 52 40.1802 52C41.2802 52 42.1802 52.9 42.1802 54C42.1802 55.1 41.2802 56 40.1802 56C39.0802 56 38.1802 55.1 38.1802 54ZM60.0002 50.54C60.0002 49.44 60.9002 48.54 62.0002 48.54C63.1002 48.54 64.0002 49.44 64.0002 50.54C64.0002 51.662 63.1002 52.54 62.0002 52.54C60.9002 52.54 60.0002 51.66 60.0002 50.54ZM60.0002 44.54C60.0002 43.44 60.9002 42.54 62.0002 42.54C63.1002 42.54 64.0002 43.44 64.0002 44.54C64.0002 45.662 63.1002 46.54 62.0002 46.54C60.9002 46.54 60.0002 45.66 60.0002 44.54ZM60.0002 38.54C60.0002 37.44 60.9002 36.54 62.0002 36.54C63.1002 36.54 64.0002 37.44 64.0002 38.54C64.0002 39.662 63.1002 40.54 62.0002 40.54C60.9002 40.54 60.0002 39.66 60.0002 38.54ZM60.0002 32.56C60.0002 31.44 60.9002 30.54 62.0002 30.54C63.1002 30.54 64.0002 31.44 64.0002 32.56C64.0002 33.66 63.1002 34.54 62.0002 34.54C60.9002 34.54 60.0002 33.66 60.0002 32.56ZM60.0002 26.54C60.0002 25.44 60.9002 24.56 62.0002 24.56C63.1002 24.56 64.0002 25.44 64.0002 26.54C64.0002 27.66 63.1002 28.56 62.0002 28.56C60.9002 28.56 60.0002 27.66 60.0002 26.54ZM60.0002 20.56C60.0002 19.44 60.9002 18.54 62.0002 18.54C63.1002 18.54 64.0002 19.44 64.0002 20.56C64.0002 21.66 63.1002 22.54 62.0002 22.54C60.9002 22.54 60.0002 21.66 60.0002 20.56ZM60.0002 14.54C60.0002 13.44 60.9002 12.56 62.0002 12.56C63.1002 12.56 64.0002 13.44 64.0002 14.54C64.0002 15.66 63.1002 16.56 62.0002 16.56C60.9002 16.56 60.0002 15.66 60.0002 14.54ZM59.1002 12C59.1002 12 59.1002 12 59.0802 12C57.9802 11.9 57.1802 10.94 57.2602 9.84C57.3602 8.74 58.3202 7.92 59.4402 8.02H59.4202C60.5202 8.12 61.3402 9.08 61.2602 10.18C61.1602 11.22 60.3002 12.02 59.2602 12.02C59.2002 12.02 59.1382 12 59.1002 12ZM51.2602 10C51.2602 8.9 52.1602 8 53.2602 8C54.3602 8 55.2602 8.9 55.2602 10C55.2602 11.1 54.3602 12 53.2602 12C52.1602 12 51.2602 11.1 51.2602 10ZM45.2602 10C45.2602 8.9 46.1602 8 47.2602 8C48.3602 8 49.2602 8.9 49.2602 10C49.2602 11.1 48.3602 12 47.2602 12C46.1602 12 45.2602 11.1 45.2602 10ZM39.2602 10C39.2602 8.9 40.1602 8 41.2602 8C42.3602 8 43.2602 8.9 43.2602 10C43.2602 11.1 42.3602 12 41.2602 12C40.1602 12 39.2602 11.1 39.2602 10Z" fill="currentColor"/>
	<path d="M32 64C30.896 64 30 63.106 30 62V2C30 0.896 30.896 0 32 0C33.104 0 34 0.896 34 2V62C34 63.106 33.104 64 32 64Z" fill="currentColor"/>
	</svg>
	