<svg width="20" height="20" viewBox="0 0 66 66" fill="none" xmlns="http://www.w3.org/2000/svg">
	<g clip-path="url(#clip0_968_693)">
	<path d="M54.4206 40.2706V36.0852C54.4206 35.7159 54.2249 35.3753 53.9062 35.1907L46.1998 30.7209V12.2458C46.1998 11.8765 46.0041 11.536 45.6854 11.3513L29.2446 1.81574C28.9266 1.63108 28.5345 1.63108 28.2165 1.81574L11.7757 11.3513C11.4577 11.536 11.2613 11.8772 11.2613 12.2458V21.1853L3.55494 25.6551C3.23693 25.8397 3.04053 26.181 3.04053 26.5496V45.6208C3.04053 45.9901 3.23623 46.3306 3.55494 46.5153L36.4366 65.5865C36.5959 65.6785 36.7734 65.7248 36.951 65.7248C37.1285 65.7248 37.306 65.6785 37.4654 65.5865L44.8698 61.2916C47.0728 63.4478 50.0803 64.7783 53.3918 64.7783C60.1301 64.7783 65.6118 59.2716 65.6118 52.5023C65.6125 46.0821 60.6795 40.7972 54.4206 40.2706ZM13.6453 33.2963V38.4205L10.9342 36.8477V31.7236M13.3175 30.7209V14.0356L17.0973 16.2276V23.1415C17.0973 23.5108 17.293 23.8513 17.6117 24.036L22.3798 26.801C22.5391 26.8929 22.7167 26.9393 22.8942 26.9393C23.0717 26.9393 23.2492 26.8929 23.4086 26.801C23.7266 26.6163 23.923 26.2758 23.923 25.9064V20.1855L27.7028 22.3776V39.0636L13.3175 30.7209ZM36.951 44.4286L33.1712 42.2365L47.5557 33.8938L51.3355 36.0859L36.951 44.4286ZM30.0861 42.8319V47.9561L27.375 46.3833V41.2592M31.1142 41.0429L30.7871 40.8533L45.1717 32.5107L45.4988 32.7002L31.1142 41.0429ZM44.1429 30.7209L29.759 39.0643V22.3783L44.1436 14.0356V30.7209H44.1429ZM28.7309 20.5892L24.9511 18.3972L39.335 10.0538L43.1148 12.2458L28.7309 20.5892ZM19.1542 17.4205L21.8654 18.9933V24.1174L19.1542 22.5447V17.4205ZM22.8942 17.2036L20.1831 15.6308L34.5676 7.28812L37.2788 8.86089L22.8942 17.2036ZM25.3181 40.067V46.9808C25.3181 47.3501 25.5138 47.6907 25.8325 47.8753L30.6005 50.6403C30.7599 50.7323 30.9374 50.7786 31.1149 50.7786C31.2925 50.7786 31.47 50.7323 31.6293 50.6403C31.9474 50.4556 32.1438 50.1151 32.1438 49.7458V44.0248L35.9235 46.2169V62.903L21.5383 54.5603V37.8749L25.3181 40.067ZM37.9791 46.2176L52.3636 37.8749V40.2713C46.1048 40.7979 41.1718 46.0821 41.1718 52.5037C41.1718 55.1908 42.0363 57.6784 43.4999 59.702L37.9798 62.9037L37.9791 46.2176ZM28.7309 3.90317L32.5107 6.09521L18.1261 14.4386L14.3463 12.2466L28.7309 3.90317ZM11.2613 27.956L9.90537 28.7423L6.12558 26.5503L11.2613 23.5719V27.956ZM5.09746 28.3386L8.87725 30.5307V37.4445C8.87725 37.8138 9.07295 38.1544 9.39166 38.339L14.1597 41.104C14.3191 41.196 14.4966 41.2423 14.6741 41.2423C14.8517 41.2423 15.0292 41.196 15.1885 41.104C15.5065 40.9193 15.7029 40.5788 15.7029 40.2095V34.4885L19.4827 36.6806V53.366L5.09746 45.0247V28.3386ZM53.3918 62.7134C47.7878 62.7134 43.228 58.1334 43.228 52.503C43.228 46.8727 47.7871 42.2927 53.3918 42.2927C58.9964 42.2927 63.5555 46.8734 63.5555 52.503C63.5555 58.1327 58.9964 62.7134 53.3918 62.7134ZM60.4327 47.2336C59.926 46.7273 59.2536 46.4486 58.5387 46.4486C58.5352 46.4486 58.5317 46.4486 58.5275 46.4486C57.8097 46.4514 57.1373 46.7351 56.6327 47.2469L51.9177 52.0305L50.1481 50.252C49.0997 49.1995 47.3943 49.1988 46.3459 50.252C45.2982 51.3052 45.2982 53.0184 46.3459 54.0716L50.0236 57.7662C50.5478 58.2928 51.2363 58.5561 51.9247 58.5561C52.6132 58.5561 53.3016 58.2928 53.8258 57.7662C55.2209 56.3647 56.6278 54.931 57.9886 53.5443C58.8063 52.7109 59.6248 51.8774 60.4446 51.0461C61.4867 49.9908 61.4811 48.2797 60.4327 47.2336ZM58.9846 49.592C58.1633 50.4247 57.3442 51.2596 56.525 52.0937C55.167 53.4776 53.7622 54.9085 52.372 56.3051C52.126 56.5522 51.7255 56.5522 51.4788 56.3051L47.8011 52.6105C47.555 52.3626 47.555 51.9603 47.8011 51.7132C47.9241 51.5896 48.0862 51.5278 48.2477 51.5278C48.4091 51.5278 48.5713 51.5896 48.6943 51.7132L51.195 54.2254C51.388 54.4192 51.6493 54.528 51.9219 54.528C51.9226 54.528 51.924 54.528 51.9247 54.528C52.1987 54.5273 52.4608 54.417 52.653 54.2219L58.0955 48.7003C58.213 48.5817 58.3695 48.5157 58.5366 48.515C58.5373 48.515 58.5386 48.515 58.5393 48.515C58.7071 48.515 58.8643 48.5803 58.9832 48.6989C59.2285 48.9433 59.2292 49.3442 58.9846 49.592Z" fill="currentColor"/>
	</g>
	<defs>
	<clipPath id="clip0_968_693">
	<rect width="65" height="66" fill="white" transform="translate(0.77832)"/>
	</clipPath>
	</defs>
	</svg>
	