<svg width="20" height="20" viewBox="0 0 48 48" fill="none" xmlns="http://www.w3.org/2000/svg">
	<g clip-path="url(#clip0_968_1035)">
	<path fill-rule="evenodd" clip-rule="evenodd" d="M22.777 40.9704V43.0308H30.3813V40.9704H22.777ZM22.0499 39.5162H31.8376H46.3688C46.3897 39.5162 46.4188 39.4953 46.448 39.4599C46.5084 39.387 46.5459 39.2787 46.5459 39.1537V36.9766L6.61258 36.9745V39.1516C6.61258 39.2766 6.65008 39.3849 6.71049 39.4578C6.73966 39.4933 6.76883 39.5141 6.78966 39.5141H21.3209H22.048L22.0499 39.5162ZM42.3811 44.4849H10.7768C10.4935 44.4849 10.2373 44.6016 10.0497 44.787C9.86224 44.9745 9.74765 45.2308 9.74765 45.5141V46.5454H43.4122V45.5141C43.4122 45.2308 43.2955 44.9745 43.1101 44.787C42.9226 44.5995 42.6663 44.4849 42.383 44.4849H42.3811ZM43.5478 38.8599C43.1457 38.8599 42.8207 38.5349 42.8207 38.1328C42.8207 37.7307 43.1457 37.4057 43.5478 37.4057H43.9665C44.3686 37.4057 44.6936 37.7307 44.6936 38.1328C44.6936 38.5349 44.3686 38.8599 43.9665 38.8599H43.5478ZM25.7643 4.0076C25.5851 3.82843 25.3372 3.71801 25.0643 3.71801C24.7914 3.71801 24.5435 3.82843 24.3643 4.0076C24.1851 4.18676 24.0747 4.43468 24.0747 4.7076C24.0747 4.98051 24.1851 5.22843 24.3643 5.4076C24.5435 5.58676 24.7914 5.69718 25.0643 5.69718C25.3372 5.69718 25.5851 5.58676 25.7643 5.4076C25.9435 5.22843 26.0539 4.98051 26.0539 4.7076C26.0539 4.43468 25.9435 4.18676 25.7643 4.0076ZM25.0643 2.26386C25.7393 2.26386 26.3497 2.53678 26.7914 2.98056C27.2331 3.42222 27.5081 4.03266 27.5081 4.70765C27.5081 5.38264 27.2352 5.99309 26.7914 6.43474C26.3497 6.87641 25.7393 7.15144 25.0643 7.15144C24.3893 7.15144 23.7789 6.87852 23.3372 6.43474C22.8955 5.99308 22.6205 5.38264 22.6205 4.70765C22.6205 4.03266 22.8934 3.42221 23.3372 2.98056C23.7789 2.53889 24.3893 2.26386 25.0643 2.26386ZM3.73736 3.50344C3.73736 3.10135 4.06236 2.77634 4.46445 2.77634C4.86655 2.77634 5.19155 3.10135 5.19155 3.50344V5.91176C5.19155 6.31384 4.86655 6.63885 4.46445 6.63885C4.06236 6.63885 3.73736 6.31385 3.73736 5.91176V3.50344ZM6.71443 3.50344C6.71443 3.10135 7.03943 2.77634 7.44152 2.77634C7.84361 2.77634 8.16861 3.10135 8.16861 3.50344V5.91176C8.16861 6.31384 7.84361 6.63885 7.44152 6.63885C7.03943 6.63885 6.71443 6.31385 6.71443 5.91176V3.50344ZM9.69149 3.50344C9.69149 3.10135 10.0165 2.77634 10.4186 2.77634C10.8207 2.77634 11.1457 3.10135 11.1457 3.50344V5.91176C11.1457 6.31384 10.8207 6.63885 10.4186 6.63885C10.0165 6.63885 9.69149 6.31385 9.69149 5.91176V3.50344ZM12.6686 3.50344C12.6686 3.10135 12.9936 2.77634 13.3957 2.77634C13.7977 2.77634 14.1227 3.10135 14.1227 3.50344V5.91176C14.1227 6.31384 13.7977 6.63885 13.3957 6.63885C12.9936 6.63885 12.6686 6.31385 12.6686 5.91176V3.50344ZM20.3747 3.98052C20.7768 3.98052 21.1018 4.30552 21.1018 4.70761C21.1018 5.1097 20.7768 5.43471 20.3747 5.43471H16.3726C15.9705 5.43471 15.6455 5.1097 15.6455 4.70761C15.6455 4.30552 15.9705 3.98052 16.3726 3.98052H20.3747ZM25.7662 15.0744C25.587 14.8952 25.3391 14.7848 25.0662 14.7848C24.7932 14.7848 24.5453 14.8952 24.3662 15.0744C24.187 15.2536 24.0766 15.5015 24.0766 15.7744C24.0766 16.0473 24.187 16.2952 24.3662 16.4744C24.5453 16.6536 24.7932 16.764 25.0662 16.764C25.3391 16.764 25.587 16.6536 25.7662 16.4744C25.9453 16.2952 26.0557 16.0473 26.0557 15.7744C26.0557 15.5015 25.9453 15.2536 25.7662 15.0744ZM25.0662 13.3307C25.7411 13.3307 26.3516 13.6036 26.7933 14.0473C27.2349 14.489 27.5099 15.0995 27.5099 15.7744C27.5099 16.4494 27.237 17.0599 26.7933 17.5015C26.3516 17.9432 25.7411 18.2182 25.0662 18.2182C24.3912 18.2182 23.7807 17.9453 23.3391 17.5015C22.8974 17.0599 22.6224 16.4494 22.6224 15.7744C22.6224 15.0995 22.8953 14.489 23.3391 14.0473C23.7807 13.6057 24.3912 13.3307 25.0662 13.3307ZM3.73923 14.5702C3.73923 14.1681 4.06423 13.8431 4.46632 13.8431C4.86841 13.8431 5.19341 14.1681 5.19341 14.5702V16.9785C5.19341 17.3806 4.86841 17.7056 4.46632 17.7056C4.06423 17.7056 3.73923 17.3806 3.73923 16.9785V14.5702ZM6.71629 14.5702C6.71629 14.1681 7.0413 13.8431 7.44339 13.8431C7.84547 13.8431 8.17048 14.1681 8.17048 14.5702V16.9785C8.17048 17.3806 7.84548 17.7056 7.44339 17.7056C7.0413 17.7056 6.71629 17.3806 6.71629 16.9785V14.5702ZM9.69336 14.5702C9.69336 14.1681 10.0184 13.8431 10.4205 13.8431C10.8225 13.8431 11.1475 14.1681 11.1475 14.5702V16.9785C11.1475 17.3806 10.8225 17.7056 10.4205 17.7056C10.0184 17.7056 9.69336 17.3806 9.69336 16.9785V14.5702ZM12.6704 14.5702C12.6704 14.1681 12.9954 13.8431 13.3975 13.8431C13.7996 13.8431 14.1246 14.1681 14.1246 14.5702V16.9785C14.1246 17.3806 13.7996 17.7056 13.3975 17.7056C12.9954 17.7056 12.6704 17.3806 12.6704 16.9785V14.5702ZM20.3766 15.0473C20.7786 15.0473 21.1037 15.3723 21.1037 15.7744C21.1037 16.1765 20.7787 16.5015 20.3766 16.5015H16.3745C15.9724 16.5015 15.6474 16.1765 15.6474 15.7744C15.6474 15.3723 15.9724 15.0473 16.3745 15.0473H20.3766ZM29.2891 23.587H1.96216C1.82258 23.587 1.69758 23.6433 1.60382 23.737C1.51216 23.8287 1.45382 23.9558 1.45382 24.0954V29.5892C1.45382 29.7288 1.51008 29.8538 1.60382 29.9476C1.69549 30.0392 1.82258 30.0976 1.96216 30.0976H29.2848C29.4244 30.0976 29.5494 30.0413 29.6432 29.9476C29.7348 29.8559 29.7932 29.7288 29.7932 29.5892V24.0954C29.7932 23.9558 29.7369 23.8308 29.6432 23.737C29.5515 23.6454 29.4244 23.587 29.2848 23.587H29.2891ZM25.7682 26.1412C25.9474 26.3204 26.0578 26.5683 26.0578 26.8412C26.0578 27.1141 25.9474 27.3621 25.7682 27.5412C25.5891 27.7204 25.3412 27.8308 25.0682 27.8308C24.7953 27.8308 24.5474 27.7204 24.3682 27.5412C24.1891 27.3621 24.0787 27.1141 24.0787 26.8412C24.0787 26.5683 24.1891 26.3204 24.3682 26.1412C24.5474 25.9621 24.7953 25.8516 25.0682 25.8516C25.3412 25.8516 25.5891 25.9621 25.7682 26.1412ZM25.0682 24.3975C25.7432 24.3975 26.3537 24.6704 26.7953 25.1142C27.237 25.5559 27.512 26.1663 27.512 26.8413C27.512 27.5163 27.2391 28.1267 26.7953 28.5684C26.3537 29.01 25.7432 29.2851 25.0682 29.2851C24.3933 29.2851 23.7828 29.0121 23.3411 28.5684C22.8995 28.1267 22.6245 27.5163 22.6245 26.8413C22.6245 26.1663 22.8974 25.5558 23.3411 25.1142C23.7828 24.6725 24.3933 24.3975 25.0682 24.3975ZM3.74131 25.6371C3.74131 25.235 4.06631 24.91 4.4684 24.91C4.87049 24.91 5.19549 25.235 5.19549 25.6371V28.0454C5.19549 28.4475 4.87049 28.7725 4.4684 28.7725C4.06631 28.7725 3.74131 28.4475 3.74131 28.0454V25.6371ZM6.71837 25.6371C6.71837 25.235 7.04338 24.91 7.44547 24.91C7.84755 24.91 8.17256 25.235 8.17256 25.6371V28.0454C8.17256 28.4475 7.84756 28.7725 7.44547 28.7725C7.04338 28.7725 6.71837 28.4475 6.71837 28.0454V25.6371ZM9.69544 25.6371C9.69544 25.235 10.0204 24.91 10.4225 24.91C10.8246 24.91 11.1496 25.235 11.1496 25.6371V28.0454C11.1496 28.4475 10.8246 28.7725 10.4225 28.7725C10.0204 28.7725 9.69544 28.4475 9.69544 28.0454V25.6371ZM12.6725 25.6371C12.6725 25.235 12.9975 24.91 13.3996 24.91C13.8017 24.91 14.1267 25.235 14.1267 25.6371V28.0454C14.1267 28.4475 13.8017 28.7725 13.3996 28.7725C12.9975 28.7725 12.6725 28.4475 12.6725 28.0454V25.6371ZM20.3786 26.1141C20.7807 26.1141 21.1057 26.4392 21.1057 26.8412C21.1057 27.2433 20.7807 27.5683 20.3786 27.5683H16.3766C15.9745 27.5683 15.6495 27.2433 15.6495 26.8412C15.6495 26.4392 15.9745 26.1141 16.3766 26.1141H20.3786ZM7.84744 22.1329V20.4829H6.32035V22.1329H7.84744ZM7.84744 11.0663V9.41623H6.32035V11.0663H7.84744ZM21.9578 11.0663V9.41623H9.30184V11.0663H21.9578ZM21.9578 22.1329V20.4829H9.30184V22.1329H21.9578ZM24.9391 22.1329V20.4829H23.412V22.1329H24.9391ZM24.9391 11.0663V9.41623H23.412V11.0663H24.9391ZM31.0308 9.70791C35.2683 5.66418 39.7497 5.65165 44.4745 9.66833C44.5079 9.69541 44.5391 9.72666 44.5704 9.76208C44.8308 10.0662 44.7954 10.5246 44.4912 10.785C39.762 14.8142 35.2768 14.8079 31.0352 10.7621L31.031 10.7579L31.006 10.7329C30.729 10.4433 30.7412 9.98295 31.0308 9.70791ZM34.9995 11.7412C34.9016 11.2683 34.8495 10.76 34.8495 10.235C34.8495 9.70999 34.9016 9.20167 34.9995 8.72876C34.1933 9.07043 33.3996 9.5725 32.6141 10.235C33.3996 10.8975 34.1933 11.3996 34.9995 11.7412ZM38.9287 12.1517C39.0079 11.935 39.0746 11.7037 39.1246 11.46C39.2016 11.0871 39.2433 10.6745 39.2433 10.235C39.2433 9.79538 39.2016 9.38286 39.1246 9.00995C39.0746 8.7662 39.0079 8.53287 38.9287 8.31827C38.1579 8.16202 37.3954 8.14119 36.6412 8.25577C36.5579 8.47244 36.4891 8.70994 36.4329 8.96201C36.3495 9.35368 36.3037 9.78287 36.3037 10.2349C36.3037 10.6891 36.3495 11.1182 36.4329 11.5078C36.487 11.7599 36.5579 11.9974 36.6412 12.2141C37.3954 12.3286 38.1579 12.3079 38.9287 12.1517ZM40.5704 8.84958C40.6537 9.29124 40.6975 9.7579 40.6975 10.2329C40.6975 10.71 40.6516 11.1746 40.5704 11.6163C41.3266 11.2809 42.0891 10.8205 42.8621 10.2329C42.0891 9.64542 41.3266 9.18291 40.5704 8.84958ZM43.9808 4.02665C42.3912 2.43705 40.1974 1.45582 37.7722 1.45582C35.3471 1.45582 33.1535 2.43918 31.5637 4.02665C29.9741 5.61625 28.9929 7.81001 28.9929 10.2352C28.9929 12.6604 29.9762 14.854 31.5637 16.4437C33.1533 18.0312 35.3471 19.0145 37.7722 19.0145C40.1974 19.0145 42.391 18.0312 43.9808 16.4437C45.5704 14.8541 46.5516 12.6604 46.5516 10.2352C46.5516 7.81001 45.5682 5.61641 43.9808 4.02665ZM27.793 7.96206L1.96157 7.95998C1.82199 7.95998 1.69699 7.90373 1.60324 7.80998C1.51157 7.71831 1.45324 7.59123 1.45324 7.45164V1.95777C1.45324 1.81819 1.50949 1.69319 1.60324 1.59944C1.69491 1.50777 1.82199 1.44944 1.96157 1.44944H29.2842C29.4238 1.44944 29.5488 1.50569 29.6426 1.59944C29.7342 1.69111 29.7926 1.81819 29.7926 1.95777V3.8182C28.8342 5.0078 28.1363 6.4182 27.7884 7.95985L27.793 7.96206ZM27.5743 11.0662C27.5514 10.7912 27.541 10.5141 27.541 10.2329C27.541 9.95789 27.5514 9.68499 27.5743 9.41625H26.3951V11.0663H27.5764L27.5743 11.0662ZM29.7993 16.6454V18.5204C29.7993 18.66 29.7431 18.785 29.6493 18.8787C29.5576 18.9704 29.4306 19.0287 29.291 19.0287L1.9619 19.0267C1.82232 19.0267 1.69732 18.9704 1.60356 18.8767C1.5119 18.785 1.45356 18.6579 1.45356 18.5183V13.0245C1.45356 12.8849 1.50981 12.7599 1.60356 12.6661C1.69523 12.5745 1.82232 12.5161 1.9619 12.5161H27.7912C28.1412 14.0515 28.837 15.4557 29.7933 16.6411L29.7993 16.6454ZM46.5534 15.4933V35.5205H6.61157V31.5476H29.2825C29.8221 31.5476 30.3138 31.3268 30.6679 30.9726C31.0221 30.6185 31.2429 30.1268 31.2429 29.5872V24.0933C31.2429 23.5537 31.0221 23.0621 30.6679 22.7079C30.3138 22.3537 29.8221 22.1329 29.2825 22.1329H26.3846V20.4829H29.2825C29.8221 20.4829 30.3138 20.262 30.6679 19.9079C31.0221 19.5537 31.2429 19.0621 31.2429 18.5224V18.1203C33.0138 19.5849 35.2867 20.4662 37.764 20.4662C40.589 20.4662 43.1475 19.3203 44.9992 17.4682C45.5909 16.8766 46.1096 16.2141 46.5429 15.4933L46.5534 15.4933ZM37.7742 -0.00268555C40.5993 -0.00268555 43.1577 1.14313 45.0094 2.99523C46.8615 4.84734 48.0074 7.40563 48.0074 10.2304V39.1494C48.0074 39.6244 47.8407 40.0598 47.574 40.3827C47.274 40.7431 46.8511 40.9681 46.3761 40.9681H31.8449V43.0286H42.3905C43.0738 43.0286 43.6967 43.3077 44.1447 43.7577C44.5947 44.2077 44.8739 44.8286 44.8739 45.5119V46.8223C44.8739 47.1452 44.7426 47.439 44.5301 47.6515C44.3176 47.864 44.0239 47.9952 43.7009 47.9952L9.46574 47.9994C9.14282 47.9994 8.8491 47.8682 8.63657 47.6557C8.42407 47.4432 8.29282 47.1494 8.29282 46.8265V45.5161C8.29282 44.8328 8.57199 44.2099 9.02199 43.7619C9.47199 43.3119 10.0928 43.0327 10.7762 43.0327H21.3218V40.9723H6.79058C6.31558 40.9723 5.89058 40.7473 5.59266 40.3869C5.32599 40.0639 5.15932 39.6264 5.15932 39.1535V31.5493H1.9614C1.42183 31.5493 0.93015 31.3284 0.575963 30.9743C0.221798 30.6201 0.000976562 30.1285 0.000976562 29.5888V24.095C0.000976562 23.5554 0.221809 23.0637 0.575963 22.7095C0.930129 22.3554 1.42178 22.1345 1.9614 22.1345H4.85932V20.4845H1.9614C1.42183 20.4845 0.93015 20.2637 0.575963 19.9095C0.221798 19.5554 0.000976562 19.0637 0.000976562 18.5241V13.0302C0.000976562 12.4907 0.221809 11.999 0.575963 11.6448C0.930129 11.2906 1.42178 11.0698 1.9614 11.0698H4.85932V9.41977H1.9614C1.42183 9.41977 0.93015 9.19894 0.575963 8.84479C0.221798 8.49062 0.000976562 7.99897 0.000976562 7.45935V1.96548C0.000976562 1.42591 0.221809 0.934227 0.575963 0.580041C0.930129 0.225875 1.42178 0.00505422 1.9614 0.00505422H29.2841C29.8236 0.00505422 30.3153 0.225886 30.6695 0.580041C31.0237 0.934206 31.2445 1.42585 31.2445 1.96548V2.3509C33.0153 0.886313 35.2882 0.00508601 37.7656 0.00508601L37.7742 -0.00268555Z" fill="currentColor"/>
	</g>
	<defs>
	<clipPath id="clip0_968_1035">
	<rect width="48" height="48" fill="white"/>
	</clipPath>
	</defs>
	</svg>
	