<?xml version="1.0" standalone="no"?>
<!DOCTYPE svg PUBLIC "-//W3C//DTD SVG 20010904//EN"
 "http://www.w3.org/TR/2001/REC-SVG-20010904/DTD/svg10.dtd">
<svg version="1.0" xmlns="http://www.w3.org/2000/svg"
 width="99.000000pt" height="50.000000pt" viewBox="0 0 99.000000 50.000000"
 preserveAspectRatio="xMidYMid meet">

<g transform="translate(0.000000,50.000000) scale(0.100000,-0.100000)"
fill="#000000" stroke="none">
<path d="M115 383 c3 -10 18 -53 33 -95 15 -43 32 -78 38 -78 10 0 74 157 74
182 0 26 -21 -10 -40 -70 -13 -37 -25 -70 -29 -74 -4 -4 -19 28 -35 72 -15 44
-33 80 -38 80 -6 0 -7 -8 -3 -17z"/>
<path d="M880 366 c0 -8 -6 -17 -12 -19 -10 -4 -10 -7 -1 -14 6 -5 13 -33 15
-63 3 -50 5 -55 28 -58 23 -2 24 -1 8 11 -21 17 -25 102 -5 111 10 5 10 7 0
12 -7 3 -13 12 -13 20 0 8 -4 14 -10 14 -5 0 -10 -6 -10 -14z"/>
<path d="M298 333 c-33 -37 -30 -91 6 -115 20 -14 63 -8 77 9 15 18 15 18 -35
-3 -8 -3 -25 5 -38 18 l-23 23 53 3 c47 3 52 5 52 26 0 48 -62 73 -92 39z m70
-25 c3 -15 -4 -18 -38 -18 -38 0 -40 1 -30 21 14 25 63 23 68 -3z"/>
<path d="M430 280 c0 -84 18 -94 22 -12 3 51 5 57 27 60 31 5 41 -12 41 -70 0
-27 5 -48 10 -48 11 0 13 71 4 108 -8 26 -48 39 -69 22 -10 -9 -15 -9 -15 -1
0 6 -4 11 -10 11 -6 0 -10 -30 -10 -70z"/>
<path d="M580 291 c0 -68 11 -81 63 -79 l37 1 0 69 c0 82 -18 91 -22 11 -3
-54 -5 -58 -28 -58 -23 0 -25 4 -28 58 -4 75 -22 74 -22 -2z"/>
<path d="M743 343 c-26 -10 -12 -20 25 -19 47 1 52 -25 6 -34 -44 -9 -54 -18
-54 -45 0 -27 19 -35 79 -33 l33 1 -4 59 c-3 37 -10 63 -19 69 -15 9 -46 11
-66 2z m67 -83 c0 -22 -34 -44 -56 -36 -22 8 -17 36 9 46 35 14 47 12 47 -10z"/>
</g>
</svg>
